<svg xmlns="http://www.w3.org/2000/svg" viewBox="0 0 80 80"><defs><style>.cls-1{fill:#eeebe1;}.cls-2{fill:#192751;}.cls-3{fill:#cf202a;}.cls-4{fill:#eeeae0;}</style></defs><g id="Layer_2" data-name="Layer 2"><circle class="cls-1" cx="40" cy="40" r="40"/><path class="cls-2" d="M281.05,422.15v-4.08h.87v1.63h1.77v-1.63h.87v4.08h-.87v-1.71h-1.77v1.71Z" transform="translate(-263.54 -362.86)"/><path class="cls-2" d="M290.08,420.11a2.27,2.27,0,0,1-.16.83,2.17,2.17,0,0,1-.47.69,2.32,2.32,0,0,1-.72.46,2.16,2.16,0,0,1-.83.17,2.29,2.29,0,0,1-.73-.13,2.2,2.2,0,0,1-.65-.37,1.89,1.89,0,0,1-.59-.73,2,2,0,0,1-.21-.92,2.26,2.26,0,0,1,.16-.82,2,2,0,0,1,.48-.69,2.12,2.12,0,0,1,.71-.46,2.2,2.2,0,0,1,.83-.17,2.16,2.16,0,0,1,.83.17,2.27,2.27,0,0,1,.72.46,2.17,2.17,0,0,1,.47.69A2.26,2.26,0,0,1,290.08,420.11Zm-2.18,1.37a1.2,1.2,0,0,0,.92-.39,1.5,1.5,0,0,0,0-1.95,1.26,1.26,0,0,0-1.84,0,1.5,1.5,0,0,0,0,1.95A1.2,1.2,0,0,0,287.9,421.48Z" transform="translate(-263.54 -362.86)"/><path class="cls-2" d="M290.89,422.15l.62-4.08h.91l.79,2.4a1.29,1.29,0,0,1,.06.22c0,.1,0,.21.05.33a2.75,2.75,0,0,1,.05-.34c0-.1,0-.17.05-.22l.8-2.39h.9l.63,4.08h-.83l-.3-2.47c0-.18,0-.31,0-.41a2.35,2.35,0,0,1,0-.26v-.15c0,.16-.05.3-.08.41a1.68,1.68,0,0,1-.07.27l-.86,2.61h-.49l-.85-2.61a1.34,1.34,0,0,1-.05-.2c0-.11-.06-.27-.1-.48V419a4.82,4.82,0,0,1-.06.69h0l-.29,2.47Z" transform="translate(-263.54 -362.86)"/><path class="cls-2" d="M296.74,422.15v-4.08h2.41v.73h-1.54v.84h1.54v.74h-1.54v1h1.54v.74Z" transform="translate(-263.54 -362.86)"/><path class="cls-2" d="M302.61,422.15v-4.08h.87v1.63h1.77v-1.63h.88v4.08h-.88v-1.71h-1.77v1.71Z" transform="translate(-263.54 -362.86)"/><path class="cls-2" d="M307.46,422.15v-4.08h2.41v.73h-1.53v.84h1.53v.74h-1.53v1h1.53v.74Z" transform="translate(-263.54 -362.86)"/><path class="cls-2" d="M310.67,422.15l1.55-4.08h1l1.57,4.08h-1l-.33-.87h-1.58l-.29.87Zm2.59-1.56-.45-1.31a1.07,1.07,0,0,1-.05-.21c0-.09-.05-.21-.07-.34,0,.13-.05.25-.07.35a1.63,1.63,0,0,1-.05.21l-.44,1.3Z" transform="translate(-263.54 -362.86)"/><path class="cls-2" d="M315.65,422.15v-4.08h.87v3.34h1.4v.74Z" transform="translate(-263.54 -362.86)"/><path class="cls-2" d="M320.11,418.81v3.34h-.88v-3.34h-1v-.74h2.87v.74Z" transform="translate(-263.54 -362.86)"/><path class="cls-2" d="M322.1,422.15v-4.08H323v1.63h1.77v-1.63h.87v4.08h-.87v-1.71H323v1.71Z" transform="translate(-263.54 -362.86)"/><path class="cls-2" d="M299,426a2,2,0,0,0-.55-.35,1.63,1.63,0,0,0-.59-.11,1.4,1.4,0,0,0-1,.39,1.62,1.62,0,0,0,0,2.07,1.3,1.3,0,0,0,1,.38,1.76,1.76,0,0,0,.66-.12,2,2,0,0,0,.56-.35v.89a2.55,2.55,0,0,1-.59.25,2.61,2.61,0,0,1-.64.08,2.23,2.23,0,0,1-1.6-.61,2.2,2.2,0,0,1,0-3.08,2.25,2.25,0,0,1,1.62-.6,2.73,2.73,0,0,1,.64.07,3.67,3.67,0,0,1,.61.21Z" transform="translate(-263.54 -362.86)"/><path class="cls-2" d="M299.74,429l1.56-4.08h1l1.58,4.08h-1l-.34-.87H301l-.28.87Zm2.6-1.55-.46-1.32-.05-.2c0-.1,0-.22-.06-.35,0,.13,0,.25-.07.35a1.63,1.63,0,0,1-.05.21l-.44,1.31Z" transform="translate(-263.54 -362.86)"/><path class="cls-2" d="M307.68,429h-1l-1.07-1.91V429h-.87v-4.08H306a1.75,1.75,0,0,1,1.11.29,1,1,0,0,1,.37.86,1.07,1.07,0,0,1-.25.72,1,1,0,0,1-.66.35Zm-2.08-2.34h.13a1.35,1.35,0,0,0,.7-.12.46.46,0,0,0,.17-.4.49.49,0,0,0-.18-.43,1.34,1.34,0,0,0-.69-.13h-.13Z" transform="translate(-263.54 -362.86)"/><path class="cls-2" d="M308.61,429v-4.08H311v.73h-1.53v.84H311v.74h-1.53v1H311V429Z" transform="translate(-263.54 -362.86)"/><path class="cls-2" d="M315.5,401h2.6V385.79l-14.77-10.42-14.8,10.42V401h2.59a12.48,12.48,0,0,1,24.38,0Z" transform="translate(-263.54 -362.86)"/><path class="cls-3" d="M302.61,391.12a19,19,0,0,1,1.33-1.59,7.08,7.08,0,0,1,11.84,2.91,9.8,9.8,0,0,1-.19,5.7c-.15.5-.15.5.25.83a7.59,7.59,0,1,1-9.94,11.46c-.2-.18-.3-.14-.48,0-.86.59-1.74,1.16-2.6,1.74a.27.27,0,0,1-.34,0,36.13,36.13,0,0,1-10.06-8.86,16.09,16.09,0,0,1-2.88-5.74,9.17,9.17,0,0,1,.06-5.34,7.35,7.35,0,0,1,5.53-4.71,6.83,6.83,0,0,1,4.81.93A6.9,6.9,0,0,1,302.61,391.12ZM311,410.76a6,6,0,1,0-5.95-6A6,6,0,0,0,311,410.76Z" transform="translate(-263.54 -362.86)"/><path class="cls-3" d="M312,409h-2.1v-2.88H307V404h2.89v-2.88H312V404h2.87v2.09H312Z" transform="translate(-263.54 -362.86)"/><polygon class="cls-4" points="39.45 39.23 36.61 31.33 35.89 33.97 27.51 33.97 27.51 32.39 34.69 32.39 36.39 26.07 39.36 34.33 41.58 27.39 43.54 34.36 50.35 34.36 50.35 35.94 42.34 35.94 41.48 32.87 39.45 39.23"/></g></svg>